<?xml version="1.0" standalone="no"?>
<!DOCTYPE svg PUBLIC "-//W3C//DTD SVG 20010904//EN"
 "http://www.w3.org/TR/2001/REC-SVG-20010904/DTD/svg10.dtd">
<svg version="1.0" xmlns="http://www.w3.org/2000/svg"
 width="1080.000000pt" height="1080.000000pt" viewBox="0 0 1080.000000 1080.000000"
 preserveAspectRatio="xMidYMid meet">
<metadata>
Created by potrace 1.14, written by Peter Selinger 2001-2017
</metadata>
<g transform="translate(0.000000,1080.000000) scale(0.100000,-0.100000)"
fill="#000000" stroke="none">
<path d="M0 5400 l0 -5400 5400 0 5400 0 0 5400 0 5400 -5400 0 -5400 0 0
-5400z m4265 3860 c692 -44 1105 -252 1309 -659 38 -74 40 -97 9 -69 -64 55
-257 147 -403 192 l-81 25 41 -47 c117 -134 200 -294 244 -473 40 -163 49
-263 43 -479 -10 -375 -85 -642 -255 -900 -66 -100 -209 -251 -301 -319 -192
-141 -483 -258 -713 -286 -32 -4 -58 -10 -58 -14 0 -3 33 -16 74 -28 131 -40
228 -120 306 -253 69 -117 107 -229 325 -947 119 -389 218 -715 222 -723 3 -8
12 14 19 50 35 174 244 1242 424 2170 111 569 203 1043 206 1053 5 15 22 17
180 17 l175 0 -7 70 -7 70 512 0 c455 0 511 -2 511 -16 0 -14 -64 -348 -77
-401 -5 -22 -9 -23 -127 -23 l-122 0 -113 -582 c-63 -321 -142 -726 -176 -900
l-62 -318 328 0 327 0 13 70 12 70 348 0 c322 0 348 1 353 18 3 9 87 440 186
957 100 517 184 950 187 963 5 21 9 22 133 22 l128 0 13 70 12 70 542 0 542 0
-39 -197 c-21 -109 -40 -208 -43 -220 -5 -22 -9 -23 -128 -23 l-122 0 -504
-2587 c-277 -1424 -506 -2594 -509 -2600 -3 -10 -122 -13 -548 -13 -299 0
-544 2 -544 4 0 1 106 547 235 1211 129 665 235 1212 235 1217 0 4 -303 8
-672 8 l-673 0 -114 -588 c-156 -802 -339 -1741 -352 -1802 l-11 -50 -544 0
c-299 0 -544 3 -544 6 0 6 239 1238 280 1448 11 54 20 100 20 102 0 2 -181 5
-402 6 l-401 3 -218 774 c-239 852 -249 882 -319 1026 -89 181 -197 298 -320
347 -50 20 -77 22 -311 26 l-256 4 -11 -59 c-74 -381 -405 -2084 -409 -2100
l-5 -23 -545 0 -545 0 7 37 c3 21 244 1258 534 2748 l528 2710 130 3 130 3 12
69 13 70 791 0 c436 0 864 -5 952 -10z m569 -3340 c9 -22 16 -42 16 -45 0 -2
-24 4 -52 15 -29 11 -73 25 -98 31 l-45 12 70 12 c39 7 75 13 81 14 7 0 19
-17 28 -39z"/>
<path d="M3156 8203 c-3 -10 -69 -342 -146 -738 -77 -396 -143 -726 -146 -734
-4 -12 45 -13 317 -9 364 6 342 1 354 89 l7 49 96 0 c95 0 254 19 336 41 31 8
59 29 116 87 128 131 195 293 221 529 38 359 -88 586 -369 662 -115 31 -239
41 -524 41 -236 0 -257 -1 -262 -17z"/>
</g>
</svg>
